<svg height="48" viewBox="0 0 48 48" width="48" xmlns="http://www.w3.org/2000/svg"><g fill="none" stroke="#324755" stroke-width="2"><rect height="48" rx="24" stroke="none" width="48"/><rect fill="none" height="46" rx="23" width="46" x="1" y="1"/></g><g fill="#324755"><path d="m23.139 11.375h-.806v-.042h-9v4h5.652a6 6 0 1 1 -1.671-6.48l2.829-2.829a9.965 9.965 0 1 0 3 5.351z" transform="translate(10.667 10.667)"/><path d="m5.255 8.7 3.3 2.416a6.008 6.008 0 0 1 9.575-2.243l2.839-2.837a10.017 10.017 0 0 0 -15.714 2.664z" transform="translate(9.902 10.667)"/><path d="m14.1 31.379a9.988 9.988 0 0 0 6.729-2.606l-3.107-2.627a6 6 0 0 1 -9.283-2.768l-3.272 2.522a10.026 10.026 0 0 0 8.933 5.479z" transform="translate(9.939 2.621)"/><path d="m29.84 16.708h-.808v-.041h-9.032v4.014h5.672a6.041 6.041 0 0 1 -2.051 2.8l3.106 2.619a9.706 9.706 0 0 0 3.307-7.43 10.066 10.066 0 0 0 -.194-1.962z" transform="translate(3.965 5.291)"/></g></svg>