<svg height="280" viewBox="0 0 280 280" width="280" xmlns="http://www.w3.org/2000/svg" xmlns:xlink="http://www.w3.org/1999/xlink"><clipPath id="a"><path d="m.037.037h280v280h-280z"/></clipPath><g clip-path="url(#a)" transform="translate(-.037 -.037)"><g transform="translate(-48.244 -77.257)"><g fill="#fff"><path d="m238.206 183.278c0-10.857-.027-19.805.027-28.753.014-2.237-1.146-3.287-3.137-3.669a11.169 11.169 0 0 0 -3.505-.109c-2.973.4-3.9 1.4-3.9 4.365-.014 17.568.055 35.136-.068 52.7-.041 5.8-2.155 10.735-7.42 13.872a3.172 3.172 0 0 0 -1.678 2.564 6.164 6.164 0 0 0 2.81 5.729c1.746 1.228 3.519.859 5.265-.15 7.325-4.269 10.775-10.912 11.362-19.1.666-9.772.053-19.579.244-27.449z"/><path d="m66.276 150.229c-8.92-.614-16.859 5.688-17.486 14.513a209.944 209.944 0 0 0 -.014 29c.818 11.853 13.135 17.991 23.57 11.785 0 1.882.014 3.587 0 5.292a26.608 26.608 0 0 1 -.109 3.3c-.655 4.487-2.687 6.943-6.22 7.5-3.219.518-5.865-.723-8.225-2.823-2.019-1.8-4.378-1.391-6.4.982-1.991 2.346-1.991 4.542 0 6.274 5.783 5.06 16.259 6.261 22.969 2.564 6.329-3.492 8.375-9.439 8.457-16.109.177-14.854.068-29.708.068-44.548-.024-10.528-6.094-16.994-16.61-17.73zm6.07 41.847c-.027 4.2-2.619 6.9-6.6 6.915-3.874.014-6.656-2.8-6.67-6.915q-.061-12.971 0-25.957c.014-4.078 2.742-6.874 6.574-6.915 3.806-.041 6.615 2.742 6.67 6.806.066 4.433.053 21.824.026 26.066z"/><path d="m230.267 135.2c2.019 1.8 4.378 1.391 6.4-.982 1.991-2.346 1.991-4.542 0-6.274-5.783-5.06-16.259-6.261-22.969-2.564-6.329 3.492-8.375 9.439-8.457 16.109-.027 2.291-.041 6.861-.041 6.861s0 3.642-.014 4.215c-1.146-.546-2.128-1.118-3.178-1.5-10.243-3.7-20.378 3.655-20.61 15.086-.177 8.579-.136 17.159.014 25.738a15.327 15.327 0 0 0 5.129 11.648c5.756 5.047 12.439 5.756 19.328 2.96 6.82-2.769 9.766-8.429 9.807-15.536.068-14.581.041-29.162.027-43.729 0 0-.055-6.261.109-7.338.655-4.487 2.687-6.943 6.22-7.5 3.229-.524 5.876.706 8.235 2.806zm-25.067 43.713c0 4.406.055 8.8-.014 13.2-.055 4.146-2.837 6.929-6.711 6.888-3.819-.041-6.533-2.851-6.547-6.929q-.061-12.971 0-25.957c.027-4.106 2.851-6.956 6.7-6.9 3.983.055 6.561 2.742 6.574 6.956.027 4.256 0 8.511 0 12.767z"/><path d="m328.078 165.9c-.409-12.917-12.249-19.5-23.761-13.231v-20.8c0-2.933-.955-4.051-3.887-4.324a15.744 15.744 0 0 0 -3.4.136c-2.2.273-3.246 1.528-3.246 3.792.027 19.614-.027 39.228.027 58.856.027 10.025 5.62 16.354 15.277 17.554 10.2 1.268 18.687-5.674 18.973-15.918.276-8.687.304-17.389.017-26.065zm-10.5 26.707a6.248 6.248 0 0 1 -6.915 6.383c-3.737-.191-6.247-2.933-6.315-7.093-.082-4.365-.068-21.755 0-26.079a6.4 6.4 0 0 1 6.4-6.615 6.2 6.2 0 0 1 6.793 5.92c.444 9.153.348 18.332.035 27.485z"/><path d="m127.382 164.7c-.968-8.511-7.3-14.008-16.586-14.472-8.32-.423-15.849 4.869-16.982 13.012-1.378 9.984-.887 20.132-.273 30.171.518 8.47 7.2 14.144 16.081 14.581 8.77.423 15.836-4.747 17.514-12.985 1.051-5.236.792-25.491.246-30.307zm-10.339 27.457c-.068 4.078-2.81 6.847-6.629 6.847a6.5 6.5 0 0 1 -6.615-6.861q-.061-13.033 0-26.079a6.625 6.625 0 1 1 13.244-.082c.068 4.379.068 21.838 0 26.176z"/><path d="m171.452 164.728c-1-8.607-7.379-14.131-16.668-14.513-8.388-.341-15.795 4.91-16.913 13.094-1.364 9.957-.887 20.064-.259 30.062.532 8.566 7.229 14.213 16.15 14.608 8.77.4 15.754-4.76 17.445-13.067 1.064-5.212.793-25.396.245-30.184zm-10.339 27.372c-.068 4.146-2.823 6.929-6.7 6.9-3.819-.041-6.547-2.837-6.561-6.915q-.061-12.992 0-25.97c.014-4.065 2.755-6.874 6.588-6.9 3.806-.041 6.6 2.755 6.67 6.82.072 4.353.072 21.731.003 26.065z"/><path d="m283.653 179.336c-.218-4.979.3-9.793-.273-14.567-1.037-8.689-7.3-14.117-16.627-14.554-8.388-.4-15.836 4.883-16.968 13.149-1.364 9.957-.859 20.051-.259 30.062.5 8.375 7.188 14.076 16 14.54 8.757.464 15.9-4.719 17.582-12.9 1.077-5.254.204-10.601.545-15.73zm-10.612 12.849c-.068 4.065-2.823 6.834-6.656 6.82s-6.574-2.823-6.588-6.888q-.061-12.992 0-25.97c.014-4.133 2.81-6.97 6.67-6.943 3.833.027 6.479 2.8 6.6 6.9 0 .177.014.368.014.546-.012 4.189.029 21.197-.039 25.535z"/></g><path d="m96.543 286.491c-.955-.218-1.132-1.023-1-2.019 1.282-9.411 3.942-18.5 6.6-27.58 3.1-10.571 6.192-21.128 10.339-31.344.409-1.009.655-2.523 2.2-1.978s.846 1.9.45 2.919c-5.1 13.367-9.152 27.061-12.958 40.838a165.043 165.043 0 0 0 -3.846 17.445c-.19 1.187-.708 1.705-1.785 1.719z" fill="#ecc913"/><path d="m283.094 258.965a5.326 5.326 0 0 1 .341-1.05c5.074-9.521 9.807-19.218 15.822-28.221.641-.968 1.459-2.046 2.728-1.2 1.228.818.532 1.95-.082 2.878-5.551 8.511-9.984 17.664-14.936 26.516a22.847 22.847 0 0 1 -1.337 2.223 1.3 1.3 0 0 1 -1.569.587c-.667-.232-1.021-.751-.967-1.733z" fill="#ecc913"/><path d="m166.419 246.567a37.326 37.326 0 0 1 2.987-9.793 1.024 1.024 0 0 1 1.391-.614 1.357 1.357 0 0 1 .859 1.664c-.859 3.042-1.76 6.083-2.687 9.1a1.4 1.4 0 0 1 -1.609 1.118 1.177 1.177 0 0 1 -.941-1.475z" fill="#ecc913"/><path d="m277.679 268.036a1.284 1.284 0 0 1 1.419-1.5 1.618 1.618 0 0 1 1.787 1.746 1.581 1.581 0 0 1 -1.678 1.746c-1.078-.028-1.569-.887-1.528-1.992z" fill="#ecc913"/><path d="m274.474 259.552c-2.537.068-5.06.232-7.584.368-1.637.082-3.137-.068-4.16-1.623-.573-.859-1.4-.873-2.414-.586-1.487.436-2.019 1.95-3.137 2.619-4.869 2.933-9.875 5.647-15.222 8.661.873-5.019 1.6-9.589 2.469-14.131.723-3.805 1.609-7.584 2.414-11.376a1.2 1.2 0 0 0 -.928-1.569 1.434 1.434 0 0 0 -1.8.777c-.245.5-.5 1.009-.75 1.528-1.378 2.933-2.305 6.07-4.187 9-2.251-1.3-4.406-1.678-6.738-.164-3.451 2.264-6.834 10.284-5.879 14.295a3.029 3.029 0 0 0 4.133 2.128 7.828 7.828 0 0 0 3.26-2.728q2.721-3.683 5.456-7.406a1.835 1.835 0 0 1 .8 1.923c-.368 2.428-.682 4.856-1.2 7.256-.259 1.187-.245 2.537-1.623 3.3a81.263 81.263 0 0 0 -19.464 15.263c-4.133 4.324-8.047 8.852-9.575 14.881-1.555 6.111 2.169 10.544 7.788 9.125a21.848 21.848 0 0 0 11.8-7 57.967 57.967 0 0 0 12.235-26.543c.614-3.11 1.637-5.524 4.733-6.929a69.011 69.011 0 0 0 6.547-3.846c1.2-.709 2.428-1.391 3.846-2.2a25.169 25.169 0 0 0 -.777 6.574c.041 1.4.259 2.864 1.7 3.437 1.569.627 2.933-.027 4.051-1.268a14.943 14.943 0 0 0 3.792-8.307c.2-1.637.846-2.4 2.605-2.36 2.605.055 5.21-.1 7.829-.164 1.023-.027 2.169-.082 2.21-1.378.02-1.352-1.18-1.584-2.23-1.557zm-37.455-2.128a35.364 35.364 0 0 1 -6.029 7.884c-.4.382-.859.7-1.65 1.323a14.664 14.664 0 0 1 2.892-9.207 5.991 5.991 0 0 1 2.7-2.332 2.022 2.022 0 0 1 2.264.6c.628.614.15 1.187-.177 1.732zm-3.178 31.044c-2.455 5.77-5.265 11.28-10.066 15.549a20.3 20.3 0 0 1 -8.484 4.337c-2.537.668-4.051-.655-4.174-3.287-.2-4.228 1.869-7.57 4.31-10.68a79.658 79.658 0 0 1 20.664-18.509c.436-.273.9-.491 1.555-.846a49.19 49.19 0 0 1 -3.805 13.436zm27.375-23.842a9.6 9.6 0 0 1 -3.41 6.383 12.919 12.919 0 0 1 1.582-8.47c1.582-.068 2.06.6 1.828 2.087z" fill="#ecc913"/><path d="m163.241 236.623c-.286-.955-1.118-.928-1.978-.791-2.687.436-5.374.846-8.061 1.255-2.592.4-5.129 1.309-7.8.887a2.471 2.471 0 0 1 .109-1.828c1.078-2.892 2.2-5.783 3.178-8.716.409-1.241 1.787-2.987-.068-3.765-1.937-.8-2.155 1.446-2.619 2.632-1.65 4.2-3.151 8.47-4.719 12.74-1 .191-1.964.368-2.919.546q-5.4.962-10.83 1.9c-.887.15-1.678.546-1.664 1.541.014 1.091 1.05.955 1.732 1.009a13.478 13.478 0 0 0 3.055-.082c3.124-.45 6.247-.982 9.684-1.528-1.76 5.974-3.465 11.717-5.183 17.459a1.384 1.384 0 0 1 -.587.641c-3.846 2.469-7.666 4.992-11.567 7.379-2.823 1.732-5.538 3.71-8.825 4.556-1.446.368-2.8.218-3.314-1.459-.614-1.978.191-4.337 1.582-4.869a19.452 19.452 0 0 0 9.371-7.406c1.882-2.755 2.046-5.333.45-6.7-1.5-1.282-4.487-.777-6.615 1.459a28.121 28.121 0 0 0 -7.652 13.9c-1.132 5.688 1.7 8.811 6.861 7.747a20.046 20.046 0 0 0 6.356-2.905c4.174-2.564 8.307-5.2 12.617-7.9-.123.559-.191.955-.314 1.337a143.057 143.057 0 0 0 -4 18.332c-.15.955-.382 2.169.928 2.428s1.7-.8 1.869-1.9c1.637-10.775 4.9-21.155 7.87-31.59 1.078-3.792 1.951-7.666 3.669-11.28 3.724-.641 7.379-1.255 11.021-1.9 2.373-.423 4.76-.8 7.12-1.337a1.412 1.412 0 0 0 1.243-1.792zm-45.366 18.564c.627-.627 1.487-1.419 2.36-.777.846.627.109 1.569-.246 2.223a13.251 13.251 0 0 1 -7.489 6.467 30.365 30.365 0 0 1 5.375-7.913z" fill="#ecc913"/><path d="m197.232 259.32c-.273-1.2-1.446-1.037-2.4-.873-1.541.259-3.055.7-4.6.9-2.073.259-4.092 1.337-6.165.887a22.781 22.781 0 0 0 -6.138-.737 4.007 4.007 0 0 1 -2.755-.464c-.177-1.364.641-2.346 1.187-3.41a17.848 17.848 0 0 1 7.12-8.034c2.264-1.255 3.9-.818 5.279 1.3a8.593 8.593 0 0 0 1.064 1.35 1.226 1.226 0 0 0 1.746.2c.6-.45.491-1.037.2-1.637-2.237-4.747-6.179-5.851-10.612-2.878-3.792 2.551-6.165 6.247-8.007 10.325-1.746 3.887-.627 5.606 3.615 5.674 1.1.014 2.278-.286 3.355.3-.164.75-.764.914-1.228 1.228-4.46 3.083-8.416 6.615-9.848 12.126-1.037 3.969 1.173 6.533 5.279 6.288 7.57-.45 14.144-9.916 12.508-18.045-.191-.955.109-1.268 1-1.432 2.537-.464 5.06-1 7.584-1.5.943-.188 2.102-.327 1.816-1.568zm-12.781 8.389c-.927 5.36-3.655 9.33-8.893 11.335-1.214.464-2.4.682-3.424-.286-.955-.9-.682-2.114-.341-3.151 1.6-4.815 5.21-7.9 9.33-10.475a26.689 26.689 0 0 1 2.578-1.282c1.214 1.226.968 2.563.75 3.859z" fill="#ecc913"/></g></g></svg>