<svg height="645.106" viewBox="0 0 819.132 645.106" width="819.132" xmlns="http://www.w3.org/2000/svg"><path d="m626.711 714.047a36.6 36.6 0 1 1 -20.539-32.932 36.51 36.51 0 0 1 20.539 32.932z" fill="#f1cb10" transform="translate(-216.674 -360.111)"/><path d="m980.3 691.829v11.43h-306.9a37.089 37.089 0 0 0 -8.715-11.43z" fill="#f1cb10" transform="translate(-257.365 -365.394)"/><path d="m987.242 726.154v11.43h-303.7a35.741 35.741 0 0 0 0-11.43z" fill="#f1cb10" transform="translate(-264.264 -377.955)"/><path d="m980.3 760.48v11.43h-315.614a36.428 36.428 0 0 0 8.715-11.43z" fill="#f1cb10" transform="translate(-257.365 -390.515)"/><circle cx="707.88" cy="59.807" fill="#112231" opacity=".15" r="50.099"/><circle cx="715.938" cy="51.705" fill="none" r="50.099" stroke="#112231" stroke-miterlimit="10" stroke-width="1.381"/><path d="m855.168 496.373v33.9h18.7" fill="none" stroke="#112231" stroke-miterlimit="10" stroke-width="1.381" transform="translate(-139.231 -478.564)"/><path d="m930.323 1274.672-5.649 11.3-2.015-2.978-62.93 40.026-20.451-20.451-68.01 61.7h-8.233l76.418-69.324 21.021 21.021 59.076-37.574-1.839-2.759z" fill="#112231" opacity=".15" transform="translate(-490.383 -763.885)"/><path d="m282.979 484.394h46.77v115.963h-46.77z" fill="none" stroke="#112231" stroke-miterlimit="10" stroke-width="1.381"/><path d="m340.192 435.119h46.77v165.186h-46.77z" fill="none" stroke="#112231" stroke-miterlimit="10" stroke-width="1.381"/><path d="m396.492 398.473h46.77v201.884h-46.77z" fill="none" stroke="#112231" stroke-miterlimit="10" stroke-width="1.381"/><g fill="#112231" opacity=".15" transform="translate(723.697 193.925)"><path d="m890.633 631.389-13.133 30.918a8.008 8.008 0 0 1 -10.51 4.248l-55.529-23.56a8.008 8.008 0 0 1 -4.248-10.51l13.138-30.918a8.008 8.008 0 0 1 10.51-4.248l55.529 23.6a7.867 7.867 0 0 1 3.109 2.365 7.786 7.786 0 0 1 1.134 8.105z" transform="translate(-806.56 -596.668)"/><path d="m901.292 623.242-44.537 18-17.955-44.542a7.786 7.786 0 0 1 3.854.613l55.529 23.6a7.121 7.121 0 0 1 3.109 2.329z" transform="translate(-818.358 -596.667)"/></g><path d="m897.125 624.941-13.138 30.918a7.993 7.993 0 0 1 -10.51 4.248l-55.529-23.6a8.008 8.008 0 0 1 -4.248-10.51l13.138-30.918a8.008 8.008 0 0 1 10.51-4.248l55.529 23.6a8.046 8.046 0 0 1 4.248 10.51z" fill="none" stroke="#112231" stroke-miterlimit="10" stroke-width="1.381" transform="translate(-79.439 -406.118)"/><path d="m907.759 616.819-44.537 18-18-44.537a7.786 7.786 0 0 1 3.854.613l55.529 23.6a7.25 7.25 0 0 1 3.154 2.324z" fill="none" stroke="#112231" stroke-miterlimit="10" stroke-width="1.381" transform="translate(-91.212 -406.142)"/><path d="m384.879 470.2h294.286a35.809 35.809 0 0 1 35.822 35.822v186.248a35.809 35.809 0 0 1 -35.822 35.822h-294.286a35.809 35.809 0 0 1 -35.822-35.822v-186.25a35.837 35.837 0 0 1 35.822-35.82z" fill="none" stroke="#112231" stroke-miterlimit="10" stroke-width="1.381" transform="translate(-338.897 -469.507)"/><path d="m386.477 477.449h305.453a17.746 17.746 0 0 1 17.736 17.736v200.395a17.746 17.746 0 0 1 -17.736 17.736h-305.453a17.746 17.746 0 0 1 -17.736-17.736v-200.438a17.708 17.708 0 0 1 17.736-17.693z" fill="#112231" opacity=".15" transform="translate(-346.1 -465.708)"/><path d="m349.057 649.482 56.536 30.261 57.412-102.825 128.444 72.564 100.9-101.862" fill="none" stroke="#112231" stroke-miterlimit="10" stroke-width="1.381" transform="translate(-338.897 -491.386)"/><circle cx="10.16" cy="158.096" fill="#f1cb10" r="10.16"/><circle cx="124.065" cy="85.532" fill="#f1cb10" r="10.16"/><circle cx="252.464" cy="158.096" fill="#f1cb10" r="10.16"/><circle cx="353.406" cy="54.264" fill="#f1cb10" r="10.16"/><path d="m10.16 47.549h124.064" fill="none" stroke="#112231" stroke-miterlimit="10" stroke-width="1.381"/><g fill="#112231" opacity=".15" transform="translate(242.299 310.249)"><path d="m491.608 672.767 45.719 59.6 31.224-7.751z" transform="translate(-491.564 -672.767)"/><path d="m532.178 736.923-40.639-64.156 22.772 93.1z" transform="translate(-491.539 -672.767)"/></g><path d="m484.632 671.109 45.719 59.6 31.224-7.751z" fill="none" stroke="#112231" stroke-miterlimit="10" stroke-width="1.381" transform="translate(-252.903 -363.385)"/><path d="m525.272 735.265-40.64-64.156 22.772 93.1z" fill="none" stroke="#112231" stroke-miterlimit="10" stroke-width="1.381" transform="translate(-252.903 -363.385)"/><path d="m574.486 784.169s72.258 117.714 200.088 82.243c127.831-35.428-.745-74.228-19.05-29.779-18.349 44.493 41.253 94.68 68.054 94.68" fill="none" stroke="#112231" stroke-miterlimit="10" stroke-width="1.381" transform="translate(-285.783 -404.757)"/><path d="m692.213 912.078v14.627c0 6.919-41.953 12.525-93.672 12.525s-93.672-5.605-93.672-12.525v-14.627z" fill="#112231" transform="translate(-242.242 -314.539)"/><path d="m692.213 904.85c0 3.81-12.612 7.182-32.538 9.5a558.44 558.44 0 0 1 -61.134 3.022c-51.763 0-93.672-5.605-93.672-12.525s41.953-12.525 93.672-12.525c15.065 0 29.3.482 41.909 1.314 30.699 2.106 51.763 6.31 51.763 11.214z" fill="#f1cb10" transform="translate(-242.242 -307.311)"/><path d="m746.272 905.659c0 3.81-12.612 7.182-32.538 9.5l-61.134-11.383 41.909-9.24c30.699 2.014 51.763 6.218 51.763 11.123z" fill="#c4d9e5" transform="translate(-296.301 -308.119)"/><path d="m652.6 839.007v44.449l61.134 11.386v-44.45z" fill="#112231" transform="translate(-296.301 -287.8)"/><path d="m781.553 842.046v44.454s-4.073 7.226-32.538 9.5v-44.451z" fill="#163649" transform="translate(-331.582 -288.912)"/><path d="m746.272 835.6c0 3.81-12.612 7.182-32.538 9.5l-61.134-11.425 41.909-9.24c30.699 2.014 51.763 6.265 51.763 11.165z" fill="#f1cb10" transform="translate(-296.301 -282.467)"/><path d="m939.027 688.7c-14.889-87.454-66.083-114.43-66.083-114.43a41.947 41.947 0 0 0 -8.846-2.934c-.832-.175-1.62-.307-2.452-.438h-17.868l-.131-.964c21.59-6.481 28.991-15.765 28.991-15.765l-26.582-52.726-4.292-5.737a41.133 41.133 0 0 0 -61.222-5.211 24.348 24.348 0 0 0 -7.532 19.444l4.817 65.557a232.6 232.6 0 0 0 41.69-.744v3.679l-5.649 1.708-.131.088-82.418 48.654s-21.2-21.152-37.355-38.319a64.851 64.851 0 0 1 -7.051-9.2 14.411 14.411 0 0 0 -19.969-4.117 14.182 14.182 0 0 0 -4.116 4.117 46.019 46.019 0 0 0 -5.255 11.693l15.065 2.5 40.862 67.828a10.187 10.187 0 0 0 13.357 3.81l76.637-38.1a37.72 37.72 0 0 0 2.233 7.488c8.058 19.269 11.517 62.054 13.269 87.673.35 5.255.569 10.116.569 14.452l.175 2.146-.175.044.175.175 11.47 147.669 6.525 154.456-15.678 10.028-22.509 4.817a12.533 12.533 0 0 0 -9.634 14.846c.044.131.044.263.088.394l45.369-2.628a13.083 13.083 0 0 0 .35 2.628l53.909-3.153 17.955-.482a10.526 10.526 0 0 0 2.89-10.729l-4.773-15.809h-.044l11.3-117.189a65.149 65.149 0 0 0 -6.394-35.078l18.216-110.225a80.156 80.156 0 0 0 -7.051-48.259zm-27.808-1.971q-2.562 5.978-4.861 12.087c-4.686-13.663-9.328-29.253-13.62-44.712 9.459 21.984 18.481 32.625 18.481 32.625zm-43.53 366.588-4.467.963-3.328-10.992 11.3-117.189a65.149 65.149 0 0 0 -6.394-35.078l6.656-43.968 5.3 41.778 6.525 154.456h.044z" fill="#112231" opacity=".15" transform="translate(-237.141 -464.767)"/><path d="m738.964 731.571a18.269 18.269 0 0 1 32.144-10.554 2.145 2.145 0 0 0 3.022.175 2.1 2.1 0 0 0 .744-1.62v-54.565a7.046 7.046 0 0 0 -7.051-7.051h-57.85a.692.692 0 0 1 -.7-.7.62.62 0 0 1 .394-.613 19.07 19.07 0 0 0 10.116-20.188 18.25 18.25 0 0 0 -36.216 3.241 19.107 19.107 0 0 0 10.423 16.948.669.669 0 0 1 .306.92.742.742 0 0 1 -.613.394h-57.895a7.046 7.046 0 0 0 -7.051 7.051v59.908a.69.69 0 0 1 -1.314.307 18.281 18.281 0 1 0 0 15.327.726.726 0 0 1 .92-.35.661.661 0 0 1 .394.613v56.274a7.046 7.046 0 0 0 7.051 7.051h52.77a2.149 2.149 0 0 0 2.146-2.146 2.1 2.1 0 0 0 -.744-1.62 18.269 18.269 0 1 1 25.75-2.1 15.242 15.242 0 0 1 -2.058 2.058 2.165 2.165 0 0 0 1.4 3.81h52.77a7.046 7.046 0 0 0 7.051-7.051v-50.98a2.149 2.149 0 0 0 -2.146-2.146 2.094 2.094 0 0 0 -1.664.788 18.255 18.255 0 0 1 -25.75 2.014 18.476 18.476 0 0 1 -6.35-15.2z" fill="#112231" opacity=".15" transform="translate(-213.343 -516.796)"/><path d="m856.274 884.079 11.649 150.033 6.525 154.457h22.247l11.3-117.189a65.149 65.149 0 0 0 -6.395-35.08l24.217-159.931z" fill="#f9d72e" transform="translate(-285.035 -610.096)"/><path d="m856.274 880.582 43.836 41.6 13.49 106.288 6.525 154.457h22.245l11.3-117.189a65.149 65.149 0 0 0 -6.394-35.078l18.218-110.226a80.339 80.339 0 0 0 -13.795-59.6z" fill="#f1cb10" transform="translate(-285.035 -604.41)"/><path d="m757.165 635.332-82.549 48.741s-21.2-21.152-37.355-38.319a64.85 64.85 0 0 1 -7.051-9.2 14.41 14.41 0 0 0 -19.969-4.117 14.183 14.183 0 0 0 -4.117 4.117 46.025 46.025 0 0 0 -5.255 11.693l15.065 2.5 40.859 67.835a10.145 10.145 0 0 0 13.357 3.81l81.717-40.6z" fill="#fb8d62" transform="translate(-191.576 -519.965)"/><path d="m941.986 774.052c-.876.394-49 22.378-84.213 19.531a57.191 57.191 0 0 1 -11.211-1.927c0-4.335-.219-9.2-.569-14.452-1.8-25.619-5.255-68.4-13.269-87.673-6.437-15.459-.613-30.348.307-37.267 1.839-13.488 7.883-19.225 7.883-19.225l5.649-1.708 24.261-7.532h17.866a40.893 40.893 0 0 1 11.3 3.328c4.072 18.173 24.041 105.979 41.996 146.925z" fill="#112231" transform="translate(-275.323 -517.673)"/><path d="m879.42 1368.739 4.773 15.809a10.485 10.485 0 0 1 -2.89 10.729l-17.955.482-53.909 3.153a12.5 12.5 0 0 1 9.109-15.152 1.282 1.282 0 0 1 .394-.088l22.509-4.817 15.678-10.028z" fill="#112231" transform="translate(-267.761 -790.266)"/><path d="m951.594 1368.739 4.773 15.809a10.574 10.574 0 0 1 -2.89 10.729l-17.955.482-53.909 3.153a12.5 12.5 0 0 1 9.109-15.152 1.282 1.282 0 0 1 .394-.088l22.509-4.817 15.678-10.028z" transform="translate(-294.171 -790.266)"/><path d="m787.707 575.483-4.817-65.558a24.4 24.4 0 0 1 7.532-19.444 41.155 41.155 0 0 1 58.157 1.533 40.738 40.738 0 0 1 3.065 3.635l4.292 5.737 26.582 52.726c0 .044-20.802 26.188-94.811 21.371z" fill="#1d1216" transform="translate(-258.158 -464.759)"/><path d="m854.731 557.725 3.766 24.261c-7.094 18.393-24.261 7.532-24.261 7.532v-22.2l-6.744.7a22.948 22.948 0 0 1 -25.006-18.875l-1.577-8.277-4.817-25.575h-.044l.482-.044 8.058-2.89a46.627 46.627 0 0 1 47.384 9.24c.35.307.7.657 1.051 1.007 16.992-2.1.526 18.7.526 18.7z" fill="#f5af94" transform="translate(-262.997 -475.86)"/><path d="m843.358 542.573c0 1.533 1.883 2.8 4.423 3.153a8.014 8.014 0 0 0 1.445.088c3.241 0 5.868-3.241 5.868-3.241s-2.628-3.241-5.868-3.241c-.482 0-.963.044-1.445.088-2.54.35-4.423 1.62-4.423 3.153z" fill="#fff" transform="translate(-280.308 -486.765)"/><path d="m843.358 542.623c0 1.533 1.883 2.8 4.423 3.153a5.391 5.391 0 0 0 0-6.306c-2.54.351-4.423 1.621-4.423 3.153z" fill="#1d1216" transform="translate(-280.308 -486.815)"/><path d="m827.536 555.839s-2.715 2.715 0 4.73" fill="none" stroke="#000" stroke-linecap="round" stroke-miterlimit="10" stroke-width=".691" transform="translate(-274.077 -492.805)"/><path d="m856.061 528.065s-7.094-3.46-12.393-2.014a2.13 2.13 0 0 1 -2.628-1.445.555.555 0 0 1 -.044-.263 2.056 2.056 0 0 1 1.8-2.365 1.07 1.07 0 0 1 .526 0c4.199.438 11.95 1.883 12.739 6.087z" fill="#1d1216" transform="translate(-279.435 -480.402)"/><path d="m805.856 542.573c0 1.533 1.883 2.8 4.423 3.153a8.014 8.014 0 0 0 1.445.088c3.241 0 5.868-3.241 5.868-3.241s-2.628-3.241-5.868-3.241c-.482 0-.963.044-1.445.088-2.54.35-4.423 1.62-4.423 3.153z" fill="#fff" transform="translate(-266.585 -486.765)"/><path d="m805.856 542.623c0 1.533 1.883 2.8 4.423 3.153a5.391 5.391 0 0 0 0-6.306c-2.54.351-4.423 1.621-4.423 3.153z" fill="#1d1216" transform="translate(-266.585 -486.815)"/><path d="m818.558 528.065s-7.094-3.46-12.393-2.014a2.13 2.13 0 0 1 -2.628-1.445.556.556 0 0 1 -.044-.263 2.055 2.055 0 0 1 1.8-2.365 1.07 1.07 0 0 1 .526 0c4.2.438 11.951 1.883 12.739 6.087z" fill="#1d1216" transform="translate(-265.712 -480.402)"/><path d="m858.638 564.886s1.927 6-2.365 10.072" fill="none" stroke="#000" stroke-linecap="round" stroke-miterlimit="10" stroke-width=".691" transform="translate(-285.035 -496.116)"/><g fill="#fb8d62"><path d="m885.972 536.658s3.241-1.27 3.591 0-3.591 8.671-3.591 8.671z" transform="translate(-295.902 -485.58)"/><path d="m856.274 594.438s8.978-4.6 12.787-10.9c0 0-.613 17.561-12.787 23.21z" transform="translate(-285.035 -502.939)"/><path d="m811.141 564.783a6.013 6.013 0 0 1 -4.861 5.912 23.4 23.4 0 0 1 -.92-3.547l-1.577-8.277a6.684 6.684 0 0 1 1.314-.131 6.055 6.055 0 0 1 6.043 6.043z" transform="translate(-265.827 -493.866)"/><circle cx="580.698" cy="63.034" r="5.693"/><path d="m1006.728 743.356-40.376 101.686-.7 15.546-1.971 18.086a3.178 3.178 0 0 1 -6.175.7c-.7-1.971-1.4-4.073-2.058-6.306-3.241-10.861-5.605-24.392-1.8-34.071l11.605-51.369 13.62-46.289s-28.728-33.983-37.53-105.847c-.263-2.19-.525-4.423-.744-6.656-.348-3.326 51.201 27.064 66.129 114.52z" transform="translate(-315.892 -519.428)"/></g><path d="m926.651 624.49c0 40.114 33.063 156.953 33.063 156.953" fill="none" stroke="#f9ee22" stroke-linecap="round" stroke-miterlimit="10" stroke-width="2.072" transform="translate(-310.788 -517.926)"/><path d="m846.469 638.51c-6.919 41.428 18.568 160.631 18.568 160.631" fill="none" stroke="#f7f719" stroke-linecap="round" stroke-miterlimit="10" stroke-width="2.072" transform="translate(-281.011 -523.056)"/><path d="m998.244 747.363-40.377 101.687-.7 15.546-1.358 12.481c-3.241-10.86-5.606-24.392-1.8-34.071l1.007-7.8a338.093 338.093 0 0 1 24.217-89.819s-28.728-33.983-37.53-105.847c15.638 12.531 45.724 44.149 56.541 107.823z" fill="#f5af94" transform="translate(-316.297 -523.435)"/><path d="m716.314 709.665a17.9 17.9 0 0 1 31.486-10.335 2.092 2.092 0 0 0 2.978.175 2.12 2.12 0 0 0 .7-1.577v-53.428a6.934 6.934 0 0 0 -6.919-6.919h-56.622a.748.748 0 0 1 -.7-.657.661.661 0 0 1 .394-.613 18.628 18.628 0 0 0 9.9-19.75 17.9 17.9 0 0 0 -35.516 3.153 18.758 18.758 0 0 0 10.16 16.6.633.633 0 0 1 .307.876.742.742 0 0 1 -.613.394h-56.54a6.934 6.934 0 0 0 -6.919 6.919v58.597a.674.674 0 0 1 -.657.657.62.62 0 0 1 -.613-.394 17.89 17.89 0 1 0 0 14.977.69.69 0 0 1 .876-.35.661.661 0 0 1 .394.613v55.047a6.934 6.934 0 0 0 6.919 6.919h51.631a2.075 2.075 0 0 0 2.1-2.1 2.12 2.12 0 0 0 -.7-1.577 17.865 17.865 0 1 1 25.181-2.058 14.6 14.6 0 0 1 -2.014 2.014 2.134 2.134 0 0 0 -.263 2.978 2.1 2.1 0 0 0 1.62.744h51.631a6.934 6.934 0 0 0 6.919-6.919v-49.88a2.113 2.113 0 0 0 -3.722-1.358 17.892 17.892 0 0 1 -25.225 1.971 17.617 17.617 0 0 1 -6.175-14.714z" fill="#f1cb10" transform="translate(-206.196 -509.648)"/><path d="m660.275 656.813-19.969.657 5.694 9.94a11.225 11.225 0 0 0 6.613 4.642 6.877 6.877 0 0 0 8.364-5.036 7.232 7.232 0 0 0 .219-1.664v-5.824z" fill="#fb8d62" transform="translate(-230.823 -529.754)"/><path d="m892.725 884.822-.438 1.839c48.435-36 58.2-130.808 58.2-130.808-75.542 53.514-57.762 128.969-57.762 128.969z" fill="#112231" transform="translate(-135.725 -424.974)"/><path d="m884.407 998v115.919c0 3.766-15.24 6.788-34.027 6.788-17.561 0-32.056-2.671-33.852-6.087a1.438 1.438 0 0 1 -.175-.744v-115.876z" fill="#d6af16" transform="translate(-108.445 -513.581)"/><path d="m876.156 998v112.153c0 3.766-15.24 6.788-34.027 6.788-10.16 0-19.312-.876-25.531-2.321a1.44 1.44 0 0 1 -.175-.744v-115.876z" fill="#f1cb10" transform="translate(-108.47 -513.581)"/><ellipse cx="741.936" cy="484.415" fill="#1d1216" rx="34.071" ry="6.788"/><path d="m885.833 918.664s16.948-103.219 56.975-137.464" fill="none" stroke="#f1cb10" stroke-miterlimit="10" stroke-width=".691" transform="translate(-133.869 -434.249)"/><path d="m826.1 911.6.307 1.4c-36.961-27.5-44.449-99.891-44.449-99.891 57.72 40.857 44.142 98.491 44.142 98.491z" fill="#112231" transform="translate(-95.859 -445.926)"/><path d="m832.559 937.417s-12.959-78.827-43.486-104.971" fill="none" stroke="#f1cb10" stroke-miterlimit="10" stroke-width=".691" transform="translate(-98.462 -453.002)"/><path d="m860.381 839.926c39.457-65.032 9.153-202.935 9.153-202.935-62.842 98.183-9.153 202.935-9.153 202.935z" fill="#112231" transform="translate(-116.738 -381.48)"/><path d="m743.643 484.766v-194.746" fill="none" stroke="#f1cb10" stroke-miterlimit="10" stroke-width=".691"/><path d="m767.511 725.6a18.269 18.269 0 0 1 -10.554-32.144 2.19 2.19 0 0 0 .219-3.022 2.1 2.1 0 0 0 -1.62-.744h-54.566a7.046 7.046 0 0 0 -7.051 7.051v57.85a.692.692 0 0 1 -.7.7.62.62 0 0 1 -.613-.394 19.07 19.07 0 0 0 -20.188-10.116 18.273 18.273 0 0 0 3.241 36.26 19.107 19.107 0 0 0 16.948-10.423.669.669 0 0 1 .92-.306.742.742 0 0 1 .394.613v57.85a7.046 7.046 0 0 0 7.051 7.051h59.865a.69.69 0 0 1 .307 1.314 18.281 18.281 0 1 0 15.327 0 .726.726 0 0 1 -.35-.92.66.66 0 0 1 .613-.394h56.274a7.046 7.046 0 0 0 7.051-7.051v-52.775a2.149 2.149 0 0 0 -2.146-2.146 2.1 2.1 0 0 0 -1.62.744 18.269 18.269 0 1 1 -2.1-25.75 15.232 15.232 0 0 1 2.058 2.058 2.165 2.165 0 0 0 3.81-1.4v-52.77a7.046 7.046 0 0 0 -7.051-7.051h-50.98a2.147 2.147 0 0 0 -1.358 3.81 18.255 18.255 0 0 1 2.014 25.75 18.476 18.476 0 0 1 -15.2 6.35z" fill="#112231" opacity=".15" transform="translate(-429.438 -546.926)"/><path d="m698.8 580.569a14.673 14.673 0 0 0 -24.524 0 64.831 64.831 0 0 1 -7.182 9.372c-16.466 17.429-38.012 38.975-38.012 38.975l-48.654-24.83 2.978-5.956-8.364-3.985-35.471-16.945.131.482a3.207 3.207 0 0 1 -.35-.088v-9.985-12.571l6.832.7a23.3 23.3 0 0 0 25.4-19.181l6.481-34.421h.044c16.554-10.685 2.8-33.72-3.109-27.5-7.62 8.058-21.152 8.5-29.3 6.394-.876-.219-25.531-10.2-25.268 14.32l-.263 14.233c-17.3-2.146-.526 19.006-.526 19.006l-1.182 16.729-3.81 24.7h-28.945s-17.473-5.43-39.151 30.918c-1.4 2.365-2.846 4.9-4.292 7.62a27.716 27.716 0 0 0 4.335 5.781l-.131.35c-11.3 26.845-14.189 70.813-14.846 84.3a5.834 5.834 0 0 0 3.722 5.737 113.977 113.977 0 0 0 12.612 3.985c-1.883 5.124-3.766 9.853-5.649 14.145l-44.055 345.436a17.372 17.372 0 0 0 3.679 2.19l-7.532 12.481-15.24 15.24a13.047 13.047 0 0 0 -2.628 14.758h9.9a23.236 23.236 0 0 0 15.152-5.605l24.13-20.583 3.2-18.524 55.612-209.157 7.576 59.733v128.356l6.131 3.2-4.861 16.072a10.687 10.687 0 0 0 2.934 10.9l18.261.482 54.828 3.2a12.713 12.713 0 0 0 -9.24-15.415 1.3 1.3 0 0 0 -.438-.088l-22.9-4.9-15.984-10.2 17.869-146.23 6.175-163.478c-.263.088-.569.131-.832.219.263-.088.569-.131.832-.219.657-6.306 1.139-12.349 1.62-18.13 7.182.569 11.605.876 11.605.876l20.276-3.2h9.284a10.513 10.513 0 0 0 10.51-10.51 11.141 11.141 0 0 0 -.832-4.117 10.573 10.573 0 0 0 -2.365-3.46c-.482-.438-1.007-.92-1.533-1.445-3.635-3.241-8.8-6.788-13.094-6.043a18.428 18.428 0 0 0 -2.671.7c-7.839 2.671-18.918 10.773-18.918 10.773l-10.773-3.153c1.007-13.795 2.058-26.188 4.248-38.056a214.248 214.248 0 0 0 3.46-29.385l.263.175 6.569 4.073 1.839-3.635 69.367 31.837a10.344 10.344 0 0 0 13.576-3.9l41.559-69.017 15.327-2.54a47.882 47.882 0 0 0 -5.392-11.996zm-183.928 161.682a117.2 117.2 0 0 0 14.145.569 117.2 117.2 0 0 1 -14.145-.569zm62.799-240.251-8.189-2.934c-1.314-.482-2.671-.876-4.029-1.226 1.358.35 2.715.788 4.029 1.226zm-56.361 6.437a45.927 45.927 0 0 1 18.09-10.242 46.47 46.47 0 0 0 -18.086 10.247 6.973 6.973 0 0 0 -.569.569l.569-.569zm-73.616 189.321c-.307-.088-.657-.175-.963-.263.306.088.657.175.963.263zm-1.051-.307c-.307-.088-.569-.175-.832-.263.263.088.569.175.832.263zm-11.3-10.992v.088zm10.51-69.762c-.044.175-.088.35-.131.482.044-.131.088-.307.131-.482zm-.745 2.628c0 .088-.044.131-.044.219a.4.4 0 0 1 .044-.219zm-.613 2.233-.131.526zm-.657 2.628c-.044.131-.044.219-.088.35a1.353 1.353 0 0 1 .088-.35zm-.569 2.321-.131.482zm-.613 2.671-.088.438zm-.526 2.409c-.044.131-.044.263-.088.438.044-.175.044-.307.088-.438zm-.526 2.671c-.044.175-.044.307-.088.482a1.863 1.863 0 0 1 .088-.482zm-.526 2.5c0 .131-.044.219-.044.35a1.088 1.088 0 0 0 .044-.35zm-.438 2.584c-.044.175-.044.35-.088.526a2.2 2.2 0 0 1 .088-.526zm-.482 2.628-.044.175zm-.394 2.452c-.044.175-.044.35-.088.526.044-.175.044-.35.088-.526zm-.788 5.033c-.044.175-.044.35-.088.526a1.882 1.882 0 0 0 .088-.526zm-.394 2.759c0 .088-.044.175-.044.263a.651.651 0 0 0 .044-.263zm-.307 2.233c-.044.175-.044.35-.088.526a2.62 2.62 0 0 0 .088-.526zm-.307 2.628c0 .131-.044.219-.044.35a.964.964 0 0 1 .044-.35zm-.263 2.234c0 .131-.044.307-.044.438a1.487 1.487 0 0 1 .044-.438zm-.307 2.5c0 .131-.044.263-.044.438 0-.175.044-.307.044-.438zm-.263 2.19c0 .131-.044.263-.044.394zm-.219 2.365c0 .131-.044.306-.044.438.005-.137.049-.312.049-.443zm-.219 2.19a.555.555 0 0 1 -.044.263.555.555 0 0 0 .044-.263zm-.219 2.146c0 .131-.044.307-.044.438a1.643 1.643 0 0 0 .044-.438zm-.35 4.073a1.213 1.213 0 0 1 -.044.394 1.213 1.213 0 0 0 .044-.394zm-.263 3.764a.854.854 0 0 1 -.044.35.963.963 0 0 1 .044-.35zm-.131 1.927v.175c-.044-.088-.044-.131 0-.175zm-.219 3.197v.219a.2.2 0 0 1 0-.219zm5.999 12.131.307.088zm3.941 1.314c-.175-.044-.394-.131-.569-.175a2.83 2.83 0 0 1 .569.175zm-.963-.307c-.175-.044-.35-.131-.526-.175.175.044.35.131.526.175zm-.92-.307c-.175-.044-.35-.131-.526-.175a2.461 2.461 0 0 0 .526.175zm-.876-.263-.482-.175zm8.408 2.5.35.088zm-3.065-.876.657.175zm1.051.307.569.175zm1.007.263.569.175zm110.888 15.1h-.219zm-.832-.044-.613-.044zm-2.101-.176-1.052-.043zm-1.665-.132-.307-.044zm-.569-.044-.307-.044zm-.613-.044-.35-.044zm-.657-.044-.263-.044zm-.613-.044-.394-.044zm-.613-.044-.438-.044zm-.7-.088-.394-.044zm-.745-.044-.438-.044zm-.744-.044-.482-.044zm-.744-.088-.307-.044zm-1.577-.131h-.35l-.482-.044z" fill="#112231" opacity=".15" transform="translate(-326.22 -467.849)"/><path d="m671.038 662.012 48.654 24.83s21.546-21.5 38.012-38.975a68.121 68.121 0 0 0 7.182-9.372 14.672 14.672 0 0 1 24.524 0 45.538 45.538 0 0 1 5.343 11.912l-15.327 2.54-41.559 69.017a10.387 10.387 0 0 1 -13.576 3.9l-71.207-32.669z" fill="#fb8d62" transform="translate(-427.864 -525.775)"/><path d="m644.4 501.982-.482-.044-8.191-2.938a47.467 47.467 0 0 0 -48.172 9.372c-.35.35-.7.657-1.051 1.007l.263-14.233c-.263-24.524 24.436-14.539 25.268-14.32 8.145 2.1 21.677 1.664 29.3-6.394 5.865-6.171 19.572 16.908 3.065 27.55z" fill="#1d1216" transform="translate(-403.501 -467.782)"/><path d="m639.856 515.1c0 .044-.044.044 0 0l-6.525 34.465a23.287 23.287 0 0 1 -25.4 19.181l-6.832-.7v22.554s-17.429 11.079-24.7-7.664l3.81-24.7 1.182-16.729s-16.773-21.152.526-19.006c.35-.35.7-.7 1.051-1.007a47.467 47.467 0 0 1 48.172-9.372l8.189 2.934z" fill="#f5af94" transform="translate(-398.959 -480.901)"/><path d="m622.814 542.842c0 1.533-1.927 2.846-4.511 3.2a8.5 8.5 0 0 1 -1.489.088c-3.284 0-6-3.328-6-3.328s2.671-3.328 6-3.328c.482 0 1.007.044 1.489.088 2.584.438 4.511 1.704 4.511 3.28z" fill="#fff" transform="translate(-412.397 -491.958)"/><path d="m626.548 542.943c0 1.533-1.927 2.847-4.511 3.2a5.528 5.528 0 0 1 0-6.394c2.584.351 4.511 1.618 4.511 3.194z" fill="#1d1216" transform="translate(-416.131 -492.059)"/><path d="m645.14 556.391s2.759 2.759 0 4.773" fill="none" stroke="#000" stroke-linecap="round" stroke-miterlimit="10" stroke-width=".691" transform="translate(-424.958 -498.15)"/><path d="m607.983 528.127s7.182-3.547 12.612-2.058a2.141 2.141 0 0 0 2.671-1.445.651.651 0 0 0 .044-.307 2.128 2.128 0 0 0 -1.8-2.409 1.067 1.067 0 0 0 -.526 0c-4.33.439-12.213 1.928-13.001 6.219z" fill="#1d1216" transform="translate(-411.361 -485.519)"/><path d="m661.007 542.842c0 1.533-1.927 2.846-4.511 3.2a8.5 8.5 0 0 1 -1.489.088c-3.284 0-6-3.328-6-3.328s2.671-3.328 6-3.328c.482 0 1.007.044 1.489.088 2.584.438 4.511 1.704 4.511 3.28z" fill="#fff" transform="translate(-426.373 -491.958)"/><path d="m664.741 542.943c0 1.533-1.927 2.847-4.511 3.2a5.528 5.528 0 0 1 0-6.394c2.584.351 4.511 1.618 4.511 3.194z" fill="#1d1216" transform="translate(-430.107 -492.059)"/><path d="m646.107 528.127s7.182-3.547 12.612-2.058a2.141 2.141 0 0 0 2.671-1.445.651.651 0 0 0 .044-.307 2.128 2.128 0 0 0 -1.8-2.409 1.067 1.067 0 0 0 -.526 0c-4.286.439-12.169 1.928-13.001 6.219z" fill="#1d1216" transform="translate(-425.312 -485.519)"/><path d="m612.563 565.577s-3.854 12 11.211 13.707z" fill="#fff" transform="translate(-412.875 -501.511)"/><path d="m584.324 536.865s-3.284-1.27-3.635 0 3.635 8.846 3.635 8.846z" fill="#fb8d62" transform="translate(-401.366 -490.798)"/><path d="m609.136 595.58s-9.153-4.686-12.963-11.079c0 0 .657 17.867 12.963 23.6z" fill="#fb8d62" transform="translate(-407.039 -508.436)"/><path d="m566.2 796.229c-8.715 2.452-19.181 2.715-30.086 1.62-33.9-3.328-71.82-19.225-72.477-19.488 20.451-46.6 43.442-152.836 43.442-152.836h28.947c7.226 18.743 24.7 7.664 24.7 7.664s9.985 1.314 13.751 21.283c2.409 12.787 4.992 33.808-.92 66.039-4.074 21.678-4.293 45.107-7.357 75.718z" fill="#f1cb10" transform="translate(-358.541 -523.448)"/><path d="m660.823 657.9-20.933 41.6-6.569-4.073-.613-2.233-15.678-56.273 35.47 16.948z" fill="#112231" transform="translate(-414.672 -527.618)"/><path d="m652.434 653.938-19.794 39.326-15.678-56.273z" fill="#f1cb10" transform="translate(-414.646 -527.643)"/><path d="m616.962 636.991 14.583 57.409 1.708 1.051z" fill="#f1cb10" transform="translate(-414.646 -527.643)"/><path d="m615.1 789.023-1.051.788a10.249 10.249 0 0 1 -5.737 1.708h-9.284l-20.276 3.2s-97.92-6.394-126.648-20.451c0 0 1.27-46.07 11.474-78.564l.131-.35 33.37 12.393-2.014 7.357-12.437 44.712 93.147 27.458s11.08-8.146 18.918-10.773a18.444 18.444 0 0 1 2.671-.7c4.335-.7 9.459 2.847 13.138 6.043.569.482 1.051.963 1.533 1.445a9.943 9.943 0 0 1 2.365 3.46 8.093 8.093 0 0 1 .7 2.274z" fill="#f5af94" transform="translate(-354.32 -548.999)"/><path d="m613.231 791.046a10.513 10.513 0 0 1 -10.51 10.51h-9.284l-20.276 3.2s-90.081-5.868-122.794-18.743a5.955 5.955 0 0 1 -3.722-5.737c.657-13.488 3.547-57.456 14.846-84.3-7.839 25.005-10.423 58.025-11.167 71.951a9.328 9.328 0 0 0 6.219 9.284c34.684 12.174 120.167 17.78 120.167 17.78l20.276-3.2h9.284a10.249 10.249 0 0 0 5.737-1.708 8.211 8.211 0 0 0 1.051-.788 7.925 7.925 0 0 1 .173 1.751z" fill="#fb8d62" transform="translate(-352.321 -549.226)"/><path d="m510.663 886.052-6.131 25.881-24.174 90.913-55.616 209.154c-18.524 10.2-30.655 0-30.655 0l44.055-345.436z" fill="#112231" opacity=".88" transform="translate(-333.091 -611.65)"/><path d="m590.562 894.743-6.175 163.478-17.867 146.223s-3.065 10.2-22.6 0l-6.131-3.2v-128.353l-7.576-59.733 24.174-90.913 6.131-25.881c10.863 1.05 21.329.836 30.044-1.621z" fill="#112231" transform="translate(-382.904 -621.961)"/><path d="m384.526 1413.517-7.532 12.483-15.24 15.24a13.046 13.046 0 0 0 -2.627 14.76h9.9a23.236 23.236 0 0 0 15.152-5.605l24.13-20.583 3.2-18.524z" fill="#c4a016" transform="translate(-319.851 -810.977)"/><path d="m548.693 1383.1-4.861 16.072a10.687 10.687 0 0 0 2.934 10.9l18.262.482 54.828 3.2a12.712 12.712 0 0 0 -9.24-15.415 1.3 1.3 0 0 0 -.438-.088l-22.9-4.9-15.984-10.2z" fill="#f1cb10" opacity=".92" transform="translate(-387.718 -800.666)"/><path d="m506.415 691.69c-1.095 5.08-2.014 8.321-2.014 8.321h-10.949c-21.765-2.277-29.954-18.174-29.954-18.174 1.445-2.715 2.847-5.255 4.292-7.62 1.883 3.109 10.51 15.5 29.516 17.473z" fill="#112231" transform="translate(-358.49 -541.265)"/><path d="m508.917 673.682h-9.065c-19.006-1.971-27.633-14.364-29.516-17.473 21.677-36.348 39.151-30.918 39.151-30.918 5.867 12.568 2.101 35.954-.57 48.391z" fill="#f1cb10" transform="translate(-360.992 -523.257)"/><path d="m527.177 690.815s8.364-30.786 6.175-38.975" fill="#112231" transform="translate(-381.792 -533.077)"/><path d="m635.133 700.17c-5.605-11.255-13.751-44.187-13.751-44.187" fill="#112231" transform="translate(-416.264 -534.593)"/><path d="m64.675 602.54 81.016-336.24" fill="none" stroke="#112231" stroke-miterlimit="10" stroke-width="1.381"/><path d="m468.954 891.98s12.218 10.992 25.881 9.985l-15.415 18.612s-14.977.7-15.853-9.81" fill="none" stroke="#112231" stroke-miterlimit="10" stroke-width=".691" transform="translate(-358.515 -620.95)"/><path d="m789.342 730.745a17.9 17.9 0 0 0 31.487 10.335 2.093 2.093 0 0 1 2.978-.175 2.12 2.12 0 0 1 .7 1.577v53.427a6.934 6.934 0 0 1 -6.919 6.919h-56.624a.748.748 0 0 0 -.7.657.661.661 0 0 0 .394.613 18.69 18.69 0 0 1 9.9 19.75 17.879 17.879 0 0 1 -35.472-3.2 18.717 18.717 0 0 1 10.2-16.6.69.69 0 0 0 .35-.876.661.661 0 0 0 -.613-.394h-56.667a6.906 6.906 0 0 1 -6.919-6.919v-9.279a10.518 10.518 0 0 0 3.065-14.539 11.9 11.9 0 0 0 -1.489-1.839c-.482-.438-1.007-.92-1.533-1.445v-31.575a.748.748 0 0 0 -.657-.7.687.687 0 0 0 -.613.394 17.89 17.89 0 1 1 -8.758-23.736 18.115 18.115 0 0 1 8.758 8.759.675.675 0 0 0 .876.35.62.62 0 0 0 .394-.613v-55a6.934 6.934 0 0 1 6.919-6.919h51.631a2.075 2.075 0 0 1 2.1 2.1 2.12 2.12 0 0 1 -.7 1.576 17.865 17.865 0 1 0 25.181 2.058 14.6 14.6 0 0 0 -2.014-2.015 2.134 2.134 0 0 1 -.263-2.978 2.1 2.1 0 0 1 1.62-.744h51.631a6.934 6.934 0 0 1 6.919 6.919v49.88a2.113 2.113 0 0 1 -3.722 1.358 17.889 17.889 0 0 0 -31.443 12.875z" fill="#112231" transform="translate(-425.3 -535.958)"/><path d="m477.519 801.743s4.511-4.861 14.408-4.73l11.517 3.372c0 .045-22.028-.568-25.925 1.358z" fill="#fb8d62" transform="translate(-363.62 -586.199)"/><path d="m863.409 656.813-20.188 1.839 5.912 8.759a11.225 11.225 0 0 0 6.613 4.642 6.877 6.877 0 0 0 8.364-5.036 7.236 7.236 0 0 0 .219-1.664v-5.824z" fill="#fb8d62" transform="translate(-497.44 -534.896)"/></svg>