<svg height="48" viewBox="0 0 48 48" width="48" xmlns="http://www.w3.org/2000/svg"><g fill="none" stroke="#324755" stroke-width="2"><rect height="48" rx="24" stroke="none" width="48"/><rect fill="none" height="46" rx="23" width="46" x="1" y="1"/></g><path d="m19.167 2.5a9.094 9.094 0 0 1 -2.617 1.275 3.733 3.733 0 0 0 -6.55 2.5v.833a8.884 8.884 0 0 1 -7.5-3.775s-3.333 7.5 4.167 10.834a9.7 9.7 0 0 1 -5.834 1.666c7.5 4.167 16.667 0 16.667-9.583a3.739 3.739 0 0 0 -.067-.692 6.427 6.427 0 0 0 1.734-3.058z" fill="#324755" transform="translate(14 14)"/></svg>